<svg width="59" height="57" viewBox="0 0 59 57" fill="none" xmlns="http://www.w3.org/2000/svg">
<g id="24 / call / call-phone">
<path id="icon" fill-rule="evenodd" clip-rule="evenodd" d="M26.6891 20.0815C27.9627 18.4609 28.4194 16.753 26.979 15.2454C23.7464 10.9747 21.5724 8.33372 20.2087 7.06189C17.6163 4.64398 13.3516 4.97104 11.1064 7.05982C9.90041 8.18173 9.49214 8.56699 8.25389 9.75447C1.35667 16.27 5.56295 30.0436 16.7448 40.6114C27.9241 51.1767 42.511 55.1502 49.4227 48.6209C50.5654 47.5809 51.5328 46.667 52.2958 45.9056C54.4961 43.7099 54.8301 39.861 52.2813 37.3605C50.9745 36.0786 48.3072 34.1251 43.5936 30.9417C42.1499 29.7229 40.4382 29.9871 38.8689 30.9591C38.1141 31.4267 37.5647 31.8997 36.5274 32.8801L34.6437 34.6596C34.3956 34.8939 31.0267 33.301 27.7565 30.2104C24.4844 27.118 22.7985 23.9371 23.0454 23.704C23.5546 23.2232 24.1829 22.6297 24.9304 21.9233C25.2595 21.6122 25.4168 21.4617 25.6186 21.2614C26.039 20.8443 26.3871 20.4657 26.6891 20.0815ZM38.1184 37.9417L40.0025 36.1619C40.5733 35.6224 40.9433 35.2906 41.2443 35.0619C45.3735 37.8616 47.7649 39.622 48.7417 40.5802C49.3281 41.1555 49.237 42.2053 48.7272 42.7141C48.0216 43.4181 47.105 44.284 45.9802 45.3084C41.5108 49.5299 29.7359 46.3224 20.2202 37.3294C10.7016 28.3335 7.30601 17.2145 11.7416 13.0243C12.9749 11.8417 13.3656 11.473 14.5543 10.3671C15 9.95243 16.2141 9.85932 16.7563 10.365C17.8062 11.3442 19.7537 13.6986 22.6185 17.4664C22.4702 17.6402 22.285 17.8367 22.0596 18.0604C21.8941 18.2246 21.7563 18.3565 21.4549 18.6413C20.7081 19.3471 20.0803 19.9401 19.5718 20.4202C16.3682 23.4446 19.0965 28.5921 24.281 33.4918C29.462 38.3883 34.9159 40.9671 38.1184 37.9417Z" fill="#DADADA"/>
</g>
</svg>
