<svg width="40" height="43" viewBox="0 0 40 43" fill="none" xmlns="http://www.w3.org/2000/svg">
<path fill-rule="evenodd" clip-rule="evenodd" d="M15.3858 38.6351C15.3967 38.8988 15.3682 39.1562 15.3112 39.4165C15.2125 39.874 15.0196 40.3581 14.7477 40.8055C13.9737 42.077 12.6581 42.9255 10.9632 42.9255C6.9726 42.9255 5.40703 41.0096 3.44681 36.2117C2.11807 32.9622 1.491 32.1957 0 32.1957V27.9038C3.99061 27.9038 5.55617 29.8199 7.51639 34.6176C8.84513 37.8673 9.47221 38.6336 10.9632 38.6336C10.9632 38.0111 10.9544 37.4593 10.9369 36.7125C10.8931 34.9619 10.8887 34.6043 10.9654 34.1363C10.9983 33.1146 11.268 32.3897 11.8074 31.6704C6.91342 30.6277 3.61346 28.4746 1.71902 24.982L1.0086 23.3487C0.317914 21.4043 0 19.201 0 16.6566C0 13.7262 0.912139 11.106 2.61801 8.91578C2.0852 6.83389 2.15973 4.29025 3.33279 1.41762L3.71654 0.478976L4.70105 0.170944C4.83261 0.129698 4.99266 0.0924657 5.18122 0.0635595C7.09759 -0.230738 9.823 0.471422 13.3882 2.70572C15.4888 2.22905 17.7012 1.98838 19.9289 1.98838C21.9198 1.98838 23.8976 2.1848 25.7898 2.57202C29.2564 0.446808 31.9073 -0.219751 33.7733 0.0639243C33.9575 0.0922296 34.1175 0.128776 34.2468 0.169313L35.238 0.476594L35.6216 1.42097C36.65 3.94621 36.8254 6.27343 36.4504 8.3098C38.4107 10.6118 39.4675 13.4419 39.4675 16.6566C39.4675 19.3669 39.2702 21.4047 38.6979 23.3874L38.0971 25.0041C36.5206 28.4928 33.0453 30.6701 27.6886 31.7071C28.2456 32.462 28.5043 33.2281 28.5043 34.3417V36.4876C28.5043 37.5276 28.5043 37.5598 28.5021 38.6336C28.5065 38.7109 28.5131 38.7486 28.5196 38.772C28.5196 38.7727 28.5043 42.9255 28.5043 42.9255C26.6362 42.9255 25.2483 42.0341 24.5642 40.6281C24.2111 39.8989 24.1059 39.2027 24.119 38.6031V34.3417C24.119 34.1618 24.1125 34.1513 23.6652 33.7131C22.468 32.5419 21.9264 31.6581 21.9264 30.0497V28.1085L23.8998 27.9145C29.7739 27.3372 32.9707 25.7404 34.0298 23.4078L34.5231 22.0833C34.9178 20.6983 35.0822 19.0118 35.0822 16.6566C35.0822 14.1542 34.1898 12.0871 32.5015 10.4355L31.574 9.52774L31.9533 8.29836C32.2888 7.20617 32.3678 5.91383 32.0126 4.43979C31.9534 4.45444 31.8919 4.47043 31.8284 4.48781C30.6553 4.80771 29.1885 5.49412 27.4212 6.64968L26.6165 7.17673L25.6758 6.94846C23.8559 6.50699 21.9023 6.28032 19.9289 6.28032C17.7341 6.28032 15.5633 6.5536 13.5593 7.08834L12.5814 7.34929L11.746 6.7891C9.91949 5.56592 8.40001 4.83853 7.18309 4.49874C7.09758 4.47446 7.01424 4.45275 6.93531 4.43339C6.51213 6.13941 6.67879 7.54105 7.10855 8.59279L7.62379 9.85386L6.68097 10.8496C5.17682 12.4363 4.38528 14.3672 4.38528 16.6566C4.38528 18.7527 4.63525 20.4897 5.09571 21.7979L5.67017 23.1273C7.10415 25.7615 10.1497 27.3463 15.5831 27.916L17.5411 28.1216V30.0497C17.5411 31.6581 16.9995 32.5419 15.8024 33.7131C15.3551 34.1513 15.3485 34.1618 15.3485 34.3417L15.3112 34.7385C15.2849 34.8685 15.2849 35.2046 15.32 36.6093C15.3353 37.2555 15.3441 37.7669 15.3485 38.3012C15.3748 38.4119 15.377 38.4832 15.3858 38.6351Z" fill="#016481"/>
</svg>
