<svg width="129" height="147" viewBox="0 0 129 147" fill="none" xmlns="http://www.w3.org/2000/svg">
<path d="M0 9.1875V137.812H129V9.1875H0ZM70.2013 109.504C70.2013 122.021 62.8299 127.735 52.0895 127.735C42.3857 127.735 36.7708 122.739 33.8913 116.681L43.7679 110.738C45.6683 114.097 47.396 116.94 51.5712 116.94C55.5449 116.94 58.0788 115.389 58.0788 109.331V68.2459H70.2013V109.504ZM98.8808 127.735C87.6221 127.735 80.3371 122.395 76.7953 115.389L86.6719 109.704C89.2634 113.925 92.6612 117.054 98.6217 117.054C103.632 117.054 106.857 114.557 106.857 111.083C106.857 106.948 103.574 105.484 98.017 103.044L94.9935 101.752C86.24 98.0479 80.4522 93.368 80.4522 83.5201C80.4522 74.4475 87.3917 67.5568 98.1897 67.5568C105.907 67.5568 111.435 70.227 115.409 77.2324L105.964 83.2617C103.891 79.558 101.645 78.0938 98.1609 78.0938C94.6192 78.0938 92.3732 80.3332 92.3732 83.2617C92.3732 86.8793 94.6192 88.3436 99.831 90.6117L102.854 91.9037C113.163 96.2965 118.951 100.804 118.951 110.91C118.951 121.763 110.37 127.735 98.8808 127.735Z" fill="#016481"/>
</svg>
