<svg width="45" height="43" viewBox="0 0 45 43" fill="none" xmlns="http://www.w3.org/2000/svg">
<path fill-rule="evenodd" clip-rule="evenodd" d="M4.69095 0H39.8299C42.2566 0 44.2222 1.92184 44.2222 4.29255V38.633C44.2222 41.0038 42.2566 42.9255 39.8299 42.9255H4.69095C2.26417 42.9255 0.298584 41.0038 0.298584 38.633V4.29255C0.298584 1.92184 2.26417 0 4.69095 0ZM4.69095 4.29255V38.633H39.8299V4.29255H4.69095ZM24.4566 15.0239C23.319 15.0239 22.1176 15.3636 21.0569 15.9944L20.0642 15.0239H17.868V30.0479H22.2604V21.4628C22.2604 20.2272 23.5649 19.3165 24.4566 19.3165H26.6528C27.5444 19.3165 28.849 20.2272 28.849 21.4628V30.0479H33.2413V21.4628C33.2413 17.4861 29.7142 15.0239 26.6528 15.0239H24.4566ZM13.4757 12.8777C14.688 12.8777 15.6719 11.9167 15.6719 10.7314C15.6719 9.54604 14.688 8.58511 13.4757 8.58511C12.2634 8.58511 11.2795 9.54604 11.2795 10.7314C11.2795 11.9167 12.2634 12.8777 13.4757 12.8777ZM11.2795 15.0239V30.0479H15.6719V15.0239H11.2795Z" fill="white"/>
</svg>
