<svg width="129" height="148" viewBox="0 0 129 148" fill="none" xmlns="http://www.w3.org/2000/svg">
<path d="M64.5 146.844C62.5707 146.844 60.6127 146.323 58.9138 145.341L41.1475 134.79C38.4984 133.287 39.7942 132.766 40.658 132.477C44.1997 131.234 44.9196 130.974 48.6917 128.806C49.0948 128.575 49.6131 128.662 50.0163 128.922L63.6649 137.044C64.1544 137.334 64.8455 137.334 65.3062 137.044L118.49 106.23C118.979 105.941 119.296 105.363 119.296 104.785V43.157C119.296 42.5499 118.979 42.0007 118.461 41.6828L65.3062 10.8976C64.8167 10.6085 64.1544 10.6085 63.6649 10.8976L10.5388 41.7117C10.0205 42.0007 9.70377 42.5788 9.70377 43.1859V104.785C9.70377 105.363 10.0205 105.941 10.5388 106.202L25.1089 114.642C33.0274 118.602 37.8649 113.948 37.8649 109.237V48.4179C37.8649 47.5507 38.556 46.8859 39.4198 46.8859H46.1578C46.9928 46.8859 47.7127 47.5507 47.7127 48.4179V109.266C47.7127 119.845 41.9538 125.916 31.962 125.916C28.881 125.916 26.4623 125.916 19.7243 122.562L5.7877 114.498C2.33234 112.503 0.201538 108.774 0.201538 104.756V43.157C0.201538 39.1679 2.33234 35.4101 5.7877 33.4156L58.9138 2.60151C62.2828 0.693701 66.7459 0.693701 70.0861 2.60151L123.27 33.4445C126.725 35.439 128.856 39.1679 128.856 43.1859V104.785C128.856 108.774 126.725 112.503 123.27 114.527L70.0861 145.341C68.3872 146.323 66.458 146.844 64.5 146.844ZM107.433 86.1117C107.433 74.5781 99.6582 71.514 83.3317 69.346C66.8035 67.1492 65.1335 66.0218 65.1335 62.1484C65.1335 58.9398 66.5444 54.6617 78.7821 54.6617C89.6953 54.6617 93.7265 57.032 95.3966 64.432C95.5406 65.1257 96.1741 65.646 96.8939 65.646H103.805C104.237 65.646 104.64 65.4726 104.928 65.1546C105.216 64.8367 105.36 64.4031 105.331 63.9695C104.265 51.2218 95.8285 45.296 78.7821 45.296C63.6073 45.296 54.5658 51.7132 54.5658 62.4953C54.5658 74.1734 63.5785 77.4109 78.1198 78.8562C95.5406 80.5617 96.8939 83.1343 96.8939 86.5742C96.8939 92.5289 92.114 95.0726 80.9129 95.0726C66.8323 95.0726 63.7513 91.5171 62.7147 84.4929C62.5995 83.7413 61.966 83.1921 61.1886 83.1921H54.3067C53.4428 83.1921 52.7806 83.8859 52.7806 84.7242C52.7806 93.714 57.6468 104.438 80.9417 104.438C97.7578 104.409 107.433 97.732 107.433 86.1117Z" fill="#016481"/>
</svg>
