<svg width="116" height="133" viewBox="0 0 116 133" fill="none" xmlns="http://www.w3.org/2000/svg">
<path d="M82.7277 29.7952C76.9795 26.1585 71.4643 24.7298 65.9751 21.0931C62.609 18.8071 57.8706 13.3001 53.9349 8.54639C53.2358 16.1575 50.9572 19.2487 48.2384 21.4048C42.7233 25.8208 39.2277 27.1716 34.3858 29.7952C30.2947 31.9513 8.28577 47.1476 8.28577 75.462C8.28577 103.828 32.0554 124.688 58.4661 124.688C84.7992 124.688 107.714 105.465 107.714 76.3712C107.714 47.1995 86.2233 31.9513 82.7277 29.7952ZM83.3751 114.375C78.1706 119.596 60.0456 121.83 53.1581 115.466C51.9152 114.219 53.2358 112.349 54.8411 112.349C54.8411 112.349 59.2429 115.804 68.1759 115.804C75.167 115.804 80.0867 113.803 82.2875 112.167C83.867 110.972 84.4625 113.284 83.3751 114.375ZM69.2634 100.711C71.5161 99.7761 76.7724 99.7241 78.792 101.049C79.8536 101.776 82.9608 105.933 80.3974 107.205C78.2224 108.296 80.0867 103.127 73.5358 103.127C69.7295 103.127 68.4867 104.478 66.6224 105.984C64.8099 107.543 64.0849 108.063 63.4634 107.205C61.9099 105.075 67.5804 101.413 69.2634 100.711ZM93.2143 105.205C89.2786 104.945 81.4331 92.5286 76.384 92.3468C68.3831 92.113 49.4295 113.31 34.6188 103.257C24.5724 96.3472 30.8384 76.0335 48.0313 75.9296C60.8483 75.7997 69.7295 88.6581 76.1251 88.5282C81.6402 88.4503 92.1268 77.67 97.3054 77.67C109.915 77.67 103.338 106.062 93.2143 105.205Z" fill="#016481"/>
</svg>
