<svg width="40" height="43" viewBox="0 0 40 43" fill="none" xmlns="http://www.w3.org/2000/svg">
<path fill-rule="evenodd" clip-rule="evenodd" d="M15.9182 38.6351C15.9292 38.8988 15.9007 39.1562 15.8437 39.4165C15.745 39.874 15.5521 40.3581 15.2802 40.8055C14.5062 42.077 13.1906 42.9255 11.4957 42.9255C7.50507 42.9255 5.9395 41.0096 3.97928 36.2117C2.65054 32.9622 2.02347 32.1957 0.532471 32.1957V27.9038C4.52308 27.9038 6.08864 29.8199 8.04886 34.6176C9.3776 37.8673 10.0047 38.6336 11.4957 38.6336C11.4957 38.0111 11.4869 37.4593 11.4694 36.7125C11.4255 34.9619 11.4211 34.6043 11.4979 34.1363C11.5308 33.1146 11.8005 32.3897 12.3399 31.6704C7.44589 30.6277 4.14593 28.4746 2.25149 24.982L1.54107 23.3487C0.850385 21.4043 0.532471 19.201 0.532471 16.6566C0.532471 13.7262 1.44461 11.106 3.15048 8.91578C2.61767 6.83389 2.6922 4.29025 3.86526 1.41762L4.24901 0.478976L5.23352 0.170944C5.36508 0.129698 5.52513 0.0924657 5.71369 0.0635595C7.63006 -0.230738 10.3555 0.471422 13.9207 2.70572C16.0213 2.22905 18.2336 1.98838 20.4614 1.98838C22.4523 1.98838 24.43 2.1848 26.3223 2.57202C29.7889 0.446808 32.4398 -0.219751 34.3057 0.0639243C34.4899 0.0922296 34.6499 0.128776 34.7793 0.169313L35.7704 0.476594L36.1541 1.42097C37.1825 3.94621 37.3579 6.27343 36.9829 8.3098C38.9431 10.6118 40 13.4419 40 16.6566C40 19.3669 39.8026 21.4047 39.2304 23.3874L38.6296 25.0041C37.0531 28.4928 33.5777 30.6701 28.2211 31.7071C28.778 32.462 29.0368 33.2281 29.0368 34.3417V36.4876C29.0368 37.5276 29.0368 37.5598 29.0346 38.6336C29.039 38.7109 29.0455 38.7486 29.0521 38.772C29.0521 38.7727 29.0368 42.9255 29.0368 42.9255C27.1687 42.9255 25.7807 42.0341 25.0966 40.6281C24.7436 39.8989 24.6384 39.2027 24.6515 38.6031V34.3417C24.6515 34.1618 24.6449 34.1513 24.1976 33.7131C23.0005 32.5419 22.4589 31.6581 22.4589 30.0497V28.1085L24.4322 27.9145C30.3063 27.3372 33.5032 25.7404 34.5622 23.4078L35.0556 22.0833C35.4503 20.6983 35.6147 19.0118 35.6147 16.6566C35.6147 14.1542 34.7223 12.0871 33.034 10.4355L32.1065 9.52774L32.4858 8.29836C32.8213 7.20617 32.9002 5.91383 32.545 4.43979C32.4858 4.45444 32.4244 4.47043 32.3608 4.48781C31.1878 4.80771 29.7209 5.49412 27.9537 6.64968L27.149 7.17673L26.2083 6.94846C24.3884 6.50699 22.4347 6.28032 20.4614 6.28032C18.2665 6.28032 16.0958 6.5536 14.0917 7.08834L13.1139 7.34929L12.2784 6.7891C10.452 5.56592 8.93248 4.83853 7.71556 4.49874C7.63005 4.47446 7.54672 4.45275 7.46778 4.43339C7.0446 6.13941 7.21126 7.54105 7.64102 8.59279L8.15626 9.85386L7.21344 10.8496C5.70929 12.4363 4.91775 14.3672 4.91775 16.6566C4.91775 18.7527 5.16772 20.4897 5.62818 21.7979L6.20264 23.1273C7.63662 25.7615 10.6822 27.3463 16.1156 27.916L18.0736 28.1216V30.0497C18.0736 31.6581 17.532 32.5419 16.3348 33.7131C15.8875 34.1513 15.881 34.1618 15.881 34.3417L15.8437 34.7385C15.8174 34.8685 15.8174 35.2046 15.8524 36.6093C15.8678 37.2555 15.8766 37.7669 15.881 38.3012C15.9073 38.4119 15.9095 38.4832 15.9182 38.6351Z" fill="white"/>
</svg>
