<svg width="44" height="43" viewBox="0 0 44 43" fill="none" xmlns="http://www.w3.org/2000/svg">
<path fill-rule="evenodd" clip-rule="evenodd" d="M30.7465 0H13.1771C5.89957 0 0 5.76552 0 12.8777V30.0479C0 37.16 5.89957 42.9255 13.1771 42.9255H30.7465C38.024 42.9255 43.9236 37.16 43.9236 30.0479V12.8777C43.9236 5.76552 38.024 0 30.7465 0ZM4.39236 12.8777C4.39236 8.13624 8.32541 4.29255 13.1771 4.29255H30.7465C35.5981 4.29255 39.5312 8.13624 39.5312 12.8777V30.0479C39.5312 34.7892 35.5981 38.633 30.7465 38.633H13.1771C8.32541 38.633 4.39236 34.7892 4.39236 30.0479V12.8777ZM21.9618 32.1942C15.8972 32.1942 10.9809 27.3895 10.9809 21.4628C10.9809 15.536 15.8972 10.7314 21.9618 10.7314C28.0263 10.7314 32.9427 15.536 32.9427 21.4628C32.9427 27.3895 28.0263 32.1942 21.9618 32.1942ZM21.9618 27.9016C25.6006 27.9016 28.5503 25.0189 28.5503 21.4628C28.5503 17.9066 25.6006 15.0239 21.9618 15.0239C18.3229 15.0239 15.3733 17.9066 15.3733 21.4628C15.3733 25.0189 18.3229 27.9016 21.9618 27.9016ZM35.1389 10.7314C35.1389 11.9167 34.1556 12.8777 32.9427 12.8777C31.7297 12.8777 30.7465 11.9167 30.7465 10.7314C30.7465 9.54604 31.7297 8.58511 32.9427 8.58511C34.1556 8.58511 35.1389 9.54604 35.1389 10.7314Z" fill="white"/>
</svg>
