<svg width="147" height="148" viewBox="0 0 147 148" fill="none" xmlns="http://www.w3.org/2000/svg">
<g clip-path="url(#clip0)">
<path d="M144.818 33.4821C144.795 33.415 144.769 33.3493 144.738 33.2856C144.696 33.1613 144.646 33.0404 144.585 32.9243C144.539 32.8521 144.487 32.7835 144.43 32.719C144.367 32.6241 144.298 32.5334 144.224 32.4473C144.158 32.3837 144.074 32.3317 144.003 32.2739C143.921 32.2029 143.834 32.1372 143.744 32.0773L116.107 16.0575C115.758 15.8545 115.362 15.7476 114.959 15.7476C114.555 15.7476 114.159 15.8545 113.81 16.0575L86.1673 32.086C86.0786 32.1465 85.9941 32.2131 85.9146 32.2854C85.8363 32.3384 85.7615 32.3963 85.6907 32.4589C85.6155 32.5434 85.5464 32.6332 85.4839 32.7277C85.4351 32.7971 85.372 32.8578 85.3289 32.9329C85.2708 33.0497 85.2209 33.1705 85.1796 33.2943C85.1566 33.3607 85.1193 33.4214 85.0992 33.4908C85.0466 33.6869 85.0195 33.889 85.0188 34.0921V64.513L61.9869 77.8648V18.3382C61.9874 18.134 61.9603 17.9308 61.9065 17.734C61.8893 17.6646 61.8491 17.6039 61.8261 17.5375C61.786 17.4141 61.7361 17.2943 61.6768 17.179C61.6366 17.1039 61.5706 17.0432 61.5218 16.9709C61.4586 16.876 61.3896 16.7853 61.3151 16.6992C61.2435 16.6375 61.1687 16.5796 61.0911 16.5257C61.0107 16.4555 60.9263 16.3898 60.8385 16.3292L33.1927 0.309328C32.8435 0.106364 32.4475 -0.000488281 32.0443 -0.000488281C31.6411 -0.000488281 31.245 0.106364 30.8958 0.309328L3.25581 16.3292C3.16607 16.3882 3.08154 16.455 3.00315 16.5286C2.92397 16.5815 2.84822 16.6395 2.77634 16.7021C2.70208 16.7866 2.63395 16.8765 2.57249 16.9709C2.52081 17.0432 2.45765 17.1039 2.41458 17.179C2.35574 17.2941 2.30676 17.414 2.26815 17.5375C2.2368 17.6004 2.209 17.665 2.18489 17.7311C2.13207 17.9291 2.10505 18.1332 2.1045 18.3382V113.642C2.1034 114.049 2.20901 114.449 2.41066 114.802C2.6123 115.155 2.90285 115.448 3.25294 115.651L58.5215 147.691C58.6444 147.753 58.7721 147.805 58.9034 147.847C58.9636 147.87 59.0211 147.905 59.0842 147.922C59.4698 148.026 59.8758 148.026 60.2614 147.922C60.3188 147.908 60.3676 147.876 60.4193 147.858C60.5579 147.815 60.6924 147.758 60.8212 147.691L116.107 115.651C116.457 115.448 116.748 115.155 116.949 114.802C117.151 114.449 117.257 114.049 117.255 113.642V83.2153L143.738 67.8632C144.091 67.6585 144.383 67.3633 144.584 67.0078C144.786 66.6523 144.891 66.2492 144.887 65.8398V34.0863C144.888 33.8828 144.865 33.6799 144.818 33.4821ZM32.0414 4.99503L55.0647 18.3353L32.0385 31.6842L9.01809 18.3382L32.0414 4.99503ZM57.3788 22.3388V80.5328L44.0196 88.2768L34.3469 93.8846V35.6992L47.7061 27.9553L57.3788 22.3388ZM57.3788 141.658L6.70974 112.301V22.3503L16.3825 27.9524L29.7388 35.6992V97.8997C29.7446 97.9871 29.7561 98.074 29.7732 98.1599C29.7801 98.2746 29.7955 98.3886 29.8192 98.501C29.8484 98.5906 29.8848 98.6776 29.9283 98.7611C29.9602 98.8608 30.0006 98.9575 30.0489 99.0502C30.1019 99.1286 30.1594 99.2039 30.2211 99.2757C30.2786 99.361 30.3419 99.4421 30.4106 99.5185C30.4766 99.5821 30.5599 99.6283 30.6317 99.6861C30.7101 99.7547 30.7925 99.8184 30.8786 99.8769L57.3472 114.96L57.3788 141.658ZM59.6757 110.968L36.6897 97.8679L60.8327 83.8744L87.3214 68.5223L110.328 81.8568L93.4455 91.5577L59.6757 110.968ZM112.653 112.289L61.9812 141.672V114.989L99.5121 93.425L112.653 85.866V112.289ZM112.653 77.8532L102.98 72.2657L89.6212 64.5217V38.0956L99.2939 43.7034L112.653 51.4532V77.8532ZM114.95 47.4207L91.9238 34.0747L114.95 20.7316L137.97 34.0718L114.95 47.4207ZM117.247 77.8532V51.4532L130.635 43.7034L140.305 38.0956V64.513L117.247 77.8532Z" fill="#016481"/>
</g>
<defs>
<clipPath id="clip0">
<rect width="147" height="148" fill="white"/>
</clipPath>
</defs>
</svg>
