<svg width="116" height="133" viewBox="0 0 116 133" fill="none" xmlns="http://www.w3.org/2000/svg">
<g clip-path="url(#clip0)">
<path d="M57.1714 32.0292C57.4304 32.1591 57.6375 32.4708 57.9482 32.4708C58.233 32.4708 58.6732 32.3669 58.6991 32.0811C58.7509 31.7175 58.2071 31.4837 57.8705 31.3278C57.4304 31.146 56.8607 31.068 56.4464 31.3018C56.3429 31.3538 56.2393 31.4837 56.2911 31.5876C56.3687 31.9253 56.8866 31.8733 57.1714 32.0292ZM51.5009 32.4708C51.8116 32.4708 52.0187 32.1591 52.2777 32.0292C52.5625 31.8733 53.0804 31.9253 53.1839 31.6136C53.2357 31.5096 53.1321 31.3798 53.0286 31.3278C52.6143 31.094 52.0446 31.1719 51.6045 31.3538C51.2679 31.5096 50.7241 31.7434 50.7759 32.1071C50.8018 32.3669 51.242 32.4968 51.5009 32.4708ZM108.75 104.893C107.818 103.854 107.378 101.88 106.886 99.776C106.42 97.672 105.876 95.412 104.167 93.9573C103.83 93.6716 103.494 93.4118 103.131 93.204C102.795 92.9962 102.432 92.8143 102.07 92.6844C104.452 85.5928 103.52 78.5272 101.112 72.137C98.1598 64.318 93.0071 57.4862 89.0714 52.8104C84.6438 47.2255 80.3455 41.9262 80.4232 34.1073C80.5527 22.1841 81.7438 0.0260517 60.7964 7.51176e-05C34.2821 -0.051878 40.9107 26.8598 40.6259 35.1204C40.1857 41.1989 38.9687 45.9786 34.8 51.9272C29.9062 57.7719 23.0187 67.2014 19.7562 77.0466C18.2027 81.6964 17.4777 86.4241 18.1509 90.8921C16.4678 92.3987 15.1991 94.7106 13.8527 96.1393C12.7652 97.2563 11.1857 97.6719 9.45089 98.2954C7.71606 98.9188 5.82589 99.854 4.66071 102.062C4.11696 103.075 3.93571 104.166 3.93571 105.283C3.93571 106.296 4.09106 107.335 4.24642 108.348C4.55714 110.452 4.89374 112.427 4.45356 113.751C3.10714 117.492 2.92589 120.09 3.88392 121.986C4.86785 123.882 6.83571 124.714 9.08839 125.181C13.5679 126.116 19.6527 125.882 24.4429 128.428C29.5696 131.13 34.7741 132.091 38.917 131.13C41.9205 130.454 44.3804 128.636 45.6232 125.882C48.8598 125.857 52.433 124.48 58.1295 124.168C61.9875 123.856 66.8295 125.545 72.3964 125.233C72.5518 125.831 72.7589 126.428 73.0437 126.974V126.999C75.1929 131.338 79.2062 133.312 83.4786 132.974C87.7768 132.636 92.308 130.117 95.9848 125.727C99.5063 121.466 105.306 119.7 109.164 117.362C111.08 116.193 112.634 114.739 112.763 112.608C112.867 110.478 111.624 108.115 108.75 104.893ZM57.9223 22.6776C60.4598 16.9108 66.7777 17.0147 69.3152 22.5737C70.9982 26.2624 70.2473 30.6005 68.2018 33.0682C67.7875 32.8604 66.6741 32.3928 64.9393 31.7954C65.2241 31.4837 65.742 31.094 65.9491 30.6005C67.192 27.5352 65.8973 23.5868 63.5929 23.5089C61.7027 23.379 59.9937 26.3143 60.5375 29.4835C59.4759 28.9639 58.1036 28.5743 57.1714 28.3405C56.9125 26.5481 57.0937 24.5479 57.9223 22.6776ZM47.3839 19.6903C49.9991 19.6903 52.7696 23.379 52.3295 28.3925C51.4232 28.6522 50.4911 29.0419 49.6884 29.5874C49.9991 27.2755 48.8339 24.3661 47.2027 24.496C45.0277 24.6778 44.6652 30.003 46.7366 31.7954C46.9955 32.0032 47.2286 31.7434 45.2089 33.2241C41.1696 29.4315 42.4902 19.6903 47.3839 19.6903ZM43.8625 35.4581C45.4679 34.2632 47.3839 32.8604 47.5134 32.7305C48.7304 31.5876 51.0089 29.0419 54.7375 29.0419C56.5759 29.0419 58.7768 29.6393 61.4437 31.3538C63.075 32.4188 64.3696 32.4968 67.2955 33.7696C69.4705 34.6788 70.8429 36.2893 70.0143 38.4973C69.3411 40.3417 67.1661 42.238 64.1366 43.1991C61.2625 44.1343 59.0098 47.3553 54.2455 47.0696C53.2357 47.0177 52.433 46.8098 51.7598 46.5241C49.6884 45.6149 48.6009 43.8225 46.5812 42.6276C44.3545 41.3807 43.1634 39.9261 42.775 38.6532C42.4125 37.3803 42.775 36.3153 43.8625 35.4581ZM44.717 122.22C44.0179 131.338 33.35 131.156 25.2196 126.896C17.4777 122.791 7.45714 125.207 5.4116 121.207C4.79017 119.986 4.79017 117.908 6.08481 114.349V114.297C6.70624 112.323 6.24017 110.141 5.92946 108.089C5.61874 106.062 5.46339 104.192 6.16249 102.893C7.06874 101.153 8.36339 100.529 9.99464 99.9579C12.6616 98.9967 13.05 99.0747 15.0696 97.3862C16.4937 95.9055 17.5295 94.0352 18.7723 92.7104C20.0929 91.2817 21.3616 90.6063 23.3554 90.918C25.4527 91.2298 27.2652 92.6844 29.0259 95.0743L34.1009 104.322C36.5607 109.491 45.2607 116.895 44.717 122.22ZM44.3545 115.492C43.2929 113.777 41.8687 111.959 40.6259 110.4C42.4643 110.4 44.3027 109.829 44.95 108.089C45.5455 106.478 44.95 104.218 43.0339 101.62C39.5384 96.8927 33.117 93.178 33.117 93.178C29.6214 90.996 27.6536 88.3204 26.7473 85.411C25.8411 82.5016 25.9705 79.3585 26.6696 76.2673C28.0161 70.3186 31.4857 64.5259 33.7125 60.8891C34.308 60.4475 33.9196 61.7204 31.4598 66.2923C29.2589 70.4745 25.142 80.1378 30.7866 87.6969C30.942 82.3198 32.2107 76.8387 34.3598 71.7214C37.467 64.6038 44.0179 52.2649 44.5357 42.4458C44.8205 42.6536 45.7268 43.277 46.1411 43.5108C47.3321 44.2122 48.2384 45.2512 49.4036 46.1864C52.6143 48.7841 56.783 48.5762 60.3821 46.4981C61.9875 45.5889 63.2821 44.5499 64.4991 44.1602C67.0625 43.355 69.108 41.9262 70.2732 40.2637C72.267 48.1606 76.9277 59.5643 79.9054 65.1233C81.4848 68.0846 84.6438 74.345 86.0161 81.9042C86.8705 81.8782 87.8286 82.0081 88.8384 82.2678C92.4116 72.9942 85.8089 62.9932 82.8054 60.2137C81.5884 59.0188 81.5366 58.4993 82.1321 58.5253C85.3946 61.4346 89.6929 67.2794 91.2464 73.8514C91.9714 76.8647 92.1009 80.0079 91.35 83.1251C95.5964 84.8915 100.646 87.7749 99.2991 92.1649C98.7295 92.1389 98.4705 92.1649 98.2116 92.1649C99.0402 89.5413 97.2018 87.593 92.308 85.385C87.233 83.1511 82.9866 83.1511 82.3911 88.6321C79.258 89.7231 77.6527 92.4507 76.85 95.7237C76.125 98.6331 75.9179 102.14 75.7107 106.088C75.5812 108.089 74.7786 110.764 73.95 113.622C65.6384 119.57 54.0902 122.168 44.3545 115.492ZM111.003 112.505C110.77 116.869 100.335 117.674 94.6384 124.584C91.2205 128.662 87.0259 130.922 83.3491 131.208C79.6723 131.493 76.4875 129.961 74.6232 126.194C73.4062 123.311 74.0018 120.194 74.908 116.765C75.8661 113.076 77.2902 109.283 77.4714 106.218C77.6786 102.27 77.9116 98.8149 78.5589 96.1653C79.2321 93.4897 80.2679 91.6973 82.1063 90.6842C82.1839 90.6323 82.2875 90.6063 82.3652 90.5544C82.5723 93.9833 84.2554 97.4641 87.233 98.2175C90.4955 99.0747 95.1821 96.2692 97.1759 93.9833C99.5062 93.9053 101.241 93.7495 103.028 95.3081C105.591 97.5161 104.866 103.179 107.455 106.114C110.2 109.128 111.08 111.18 111.003 112.505ZM44.8723 38.6272C45.3902 39.1208 46.0893 39.7962 46.9437 40.4716C48.6527 41.8223 51.0348 43.2251 54.0125 43.2251C57.0161 43.2251 59.8384 41.6925 62.2464 40.4196C63.5152 39.7442 65.0687 38.6012 66.0786 37.718C67.0884 36.8348 67.6062 36.0815 66.8812 36.0036C66.1562 35.9257 66.208 36.679 65.3277 37.3284C64.1884 38.1596 62.8161 39.2507 61.7286 39.8741C59.8125 40.9651 56.6795 42.5237 53.9866 42.5237C51.2937 42.5237 49.1446 41.2768 47.5393 40.004C46.7366 39.3546 46.0634 38.7052 45.5455 38.2116C45.1571 37.8479 45.0536 37.0167 44.4321 36.9387C44.0696 36.9128 43.9661 37.8999 44.8723 38.6272Z" fill="#016481"/>
</g>
<defs>
<clipPath id="clip0">
<rect width="116" height="133" fill="white"/>
</clipPath>
</defs>
</svg>
