<svg width="173" height="137" viewBox="0 0 173 137" fill="none" xmlns="http://www.w3.org/2000/svg">
<path d="M86.5 27.9621C132.832 27.9621 168.459 47.2812 168.459 68.5002C168.459 89.7191 132.805 109.038 86.5 109.038C40.1684 109.038 4.54125 89.7191 4.54125 68.5002C4.54125 47.2812 40.1955 27.9621 86.5 27.9621ZM86.5 23.4668C38.7358 23.4668 0 43.6154 0 68.5002C0 93.385 38.7358 113.534 86.5 113.534C134.264 113.534 173 93.385 173 68.5002C173 43.6154 134.264 23.4668 86.5 23.4668ZM58.9822 64.8879C56.8467 75.7248 49.305 74.601 40.0333 74.601L43.7366 55.71C54.0084 55.71 60.9825 54.6129 58.9822 64.8879ZM26.3284 93.7328H36.2489L38.6006 81.7453C49.7105 81.7453 56.6034 82.548 62.9828 76.6346C70.038 70.2127 71.8761 58.7871 66.8483 53.0609C64.2262 50.0641 60.0094 48.5924 54.2787 48.5924H35.1677L26.3284 93.7328ZM76.5255 36.5781H86.3919L84.0402 48.5656C92.555 48.5656 100.448 47.9502 104.26 51.4287C108.26 55.0678 106.341 59.7236 102.016 81.6918H92.0144C96.1772 60.4461 96.9611 58.6801 95.4473 57.0746C93.9877 55.5227 90.6628 55.8438 82.6345 55.8438L77.5527 81.6918H67.6862L76.5255 36.5781ZM136.508 64.8879C134.345 75.8854 126.587 74.601 117.559 74.601L121.262 55.71C131.588 55.71 138.508 54.6129 136.508 64.8879ZM103.854 93.7328H113.802L116.153 81.7453C127.831 81.7453 134.291 82.4143 140.535 76.6346C147.591 70.2127 149.429 58.7871 144.401 53.0609C141.779 50.0641 137.562 48.5924 131.831 48.5924H112.72L103.854 93.7328Z" fill="#016481"/>
</svg>
