<svg width="147" height="148" viewBox="0 0 147 148" fill="none" xmlns="http://www.w3.org/2000/svg">
<path d="M120.069 51.2217C118.519 50.7014 116.968 50.21 115.418 49.7475C115.676 48.6779 115.906 47.6084 116.136 46.5389C119.667 29.3107 117.342 15.4646 109.504 10.8975C101.953 6.53262 89.6355 11.0709 77.175 21.9975C75.9404 23.067 74.7346 24.1943 73.5861 25.3217C72.8109 24.5701 72.007 23.8186 71.2031 23.0959C58.1396 11.4178 45.0475 6.50371 37.2094 11.0998C29.6871 15.4936 27.4477 28.5303 30.6059 44.8334C30.9217 46.4522 31.2662 48.042 31.6682 49.6607C29.8307 50.1811 28.0219 50.7592 26.3279 51.3662C10.9963 56.7139 0 65.1545 0 73.8842C0 82.9029 11.7141 91.9506 27.6486 97.4428C28.9406 97.8764 30.2326 98.31 31.5533 98.6857C31.1227 100.42 30.7494 102.126 30.4049 103.889C27.3902 119.932 29.7445 132.651 37.2668 137.015C45.0187 141.525 58.0535 136.9 70.7438 125.713C71.7486 124.817 72.7535 123.892 73.7584 122.909C75.0217 124.152 76.3424 125.337 77.6631 126.494C89.9514 137.131 102.096 141.438 109.59 137.073C117.342 132.564 119.868 118.891 116.595 102.241C116.337 100.969 116.05 99.6686 115.734 98.3389C116.653 98.0787 117.543 97.7896 118.433 97.5006C134.999 91.9795 147 83.0475 147 73.8842C147 65.1256 135.688 56.6271 120.069 51.2217ZM81.2232 26.6803C91.9037 17.3146 101.866 13.6436 106.403 16.274C111.255 19.0779 113.121 30.4092 110.078 45.2959C109.877 46.2787 109.676 47.2326 109.417 48.1865C103.044 46.7412 96.5836 45.7006 90.0949 45.1225C86.3625 39.7459 82.2856 34.6006 77.8641 29.7732C78.9838 28.7037 80.0748 27.692 81.2232 26.6803ZM48.0047 88.8865C49.4689 91.4014 50.9619 93.9162 52.541 96.3732C48.0621 95.8818 43.6119 95.1592 39.2191 94.2053C40.4824 90.0428 42.0615 85.7357 43.899 81.342C45.2197 83.8857 46.5691 86.4006 48.0047 88.8865ZM39.3053 54.1123C43.4396 53.1873 47.8324 52.4357 52.3975 51.8576C50.8758 54.2568 49.3828 56.7139 47.976 59.1998C46.5691 61.6568 45.191 64.1717 43.899 66.7154C42.0902 62.4084 40.5686 58.1881 39.3053 54.1123ZM47.1721 74.0287C49.067 70.0397 51.1342 66.1373 53.3162 62.2928C55.4982 58.4482 57.8525 54.7193 60.3217 51.0482C64.6283 50.7303 69.0211 50.5568 73.5 50.5568C77.9789 50.5568 82.4004 50.7303 86.6783 51.0482C89.1188 54.6904 91.4443 58.4193 93.6551 62.235C95.8658 66.0506 97.933 69.9529 99.8854 73.9131C97.9617 77.9022 95.8945 81.8334 93.6838 85.7068C91.5018 89.5514 89.1762 93.2803 86.7357 96.9803C82.4578 97.2982 78.0076 97.4428 73.5 97.4428C68.9924 97.4428 64.6283 97.2982 60.4078 97.0381C57.91 93.367 55.5557 89.6092 53.3449 85.7647C51.1342 81.9201 49.0957 78.0178 47.1721 74.0287ZM99.024 88.8287C100.488 86.285 101.866 83.7123 103.216 81.1107C105.053 85.3022 106.661 89.5514 108.068 93.9162C103.618 94.9279 99.1102 95.7084 94.5738 96.2287C96.1242 93.8006 97.5885 91.3147 99.024 88.8287ZM103.158 66.7154C101.809 64.1717 100.431 61.6279 98.9953 59.142C97.5885 56.685 96.1242 54.2568 94.6025 51.8576C99.225 52.4357 103.646 53.2162 107.781 54.1701C106.46 58.4482 104.91 62.6107 103.158 66.7154ZM73.5574 34.1959C76.5721 37.4912 79.4145 40.96 82.0559 44.5443C76.3711 44.2842 70.6576 44.2842 64.9729 44.5443C67.7865 40.8154 70.6863 37.3467 73.5574 34.1959ZM40.2527 16.4764C45.0762 13.6436 55.7854 17.6904 67.0687 27.7498C67.7865 28.3857 68.5043 29.0795 69.2508 29.7732C64.8006 34.6006 60.6949 39.7459 56.9338 45.1225C50.4451 45.7006 44.0139 46.7123 37.64 48.1287C37.2668 46.6545 36.951 45.1514 36.6352 43.6482C33.9363 29.6576 35.7164 19.1068 40.2527 16.4764ZM33.2186 92.6732C32.0127 92.3264 30.8355 91.9506 29.6584 91.5459C23.543 89.6092 16.5949 86.5451 11.5705 82.5272C8.6707 80.5037 6.71836 77.3818 6.17285 73.8842C6.17285 68.5943 15.2455 61.8303 28.3377 57.2342C29.9742 56.6561 31.6395 56.1357 33.3047 55.6443C35.257 61.917 37.6113 68.074 40.3389 74.0287C37.5826 80.0701 35.1996 86.3139 33.2186 92.6732ZM66.6955 121.001C61.9582 125.366 56.4744 128.835 50.5025 131.205C47.3156 132.737 43.6406 132.882 40.3676 131.581C35.8025 128.922 33.9076 118.718 36.4916 104.987C36.8074 103.369 37.152 101.75 37.5539 100.16C43.9852 101.547 50.4738 102.501 57.0486 102.993C60.8385 108.398 65.0016 113.572 69.4518 118.429C68.533 119.325 67.6143 120.192 66.6955 121.001ZM73.7297 113.977C70.8012 110.797 67.8727 107.271 65.0303 103.484C67.7865 103.6 70.6289 103.658 73.5 103.658C76.4572 103.658 79.357 103.6 82.2281 103.455C79.5867 107.126 76.7443 110.624 73.7297 113.977ZM111.255 122.649C110.996 126.176 109.274 129.471 106.518 131.697C101.953 134.356 92.2195 130.887 81.7113 121.811C80.5055 120.77 79.2996 119.643 78.065 118.487C82.4578 113.601 86.5061 108.427 90.1811 102.993C96.7559 102.444 103.302 101.432 109.762 99.9576C110.049 101.143 110.307 102.328 110.537 103.484C111.944 109.728 112.174 116.232 111.255 122.649ZM116.48 91.5748C115.676 91.835 114.872 92.0951 114.04 92.3264C112.03 86.0248 109.561 79.8678 106.719 73.8842C109.475 67.9873 111.8 61.917 113.753 55.7021C115.246 56.1357 116.681 56.5982 118.059 57.0607C131.439 61.6857 140.827 68.5654 140.827 73.8264C140.827 79.492 130.807 86.8053 116.48 91.5748ZM73.5 87.2389C80.7639 87.2389 86.6496 81.3131 86.6496 73.9998C86.6496 66.6865 80.7639 60.7607 73.5 60.7607C66.2361 60.7607 60.3504 66.6865 60.3504 73.9998C60.3504 81.3131 66.2361 87.2389 73.5 87.2389Z" fill="#016481"/>
</svg>
