<svg width="1440" height="134" viewBox="0 0 1440 134" fill="none" xmlns="http://www.w3.org/2000/svg">
<path d="M-161 115.543L-106.367 97.9332C-51.7333 80.3237 57.5333 45.1047 166.8 30.4118C276.067 15.939 385.333 21.442 494.6 18.6905C603.867 15.939 713.133 3.83252 822.4 1.08104C931.667 -1.67044 1040.93 3.83252 1150.2 15.7739C1259.47 27.4953 1368.73 45.1048 1423.37 53.9095L1478 62.7142V133.152H1423.37C1368.73 133.152 1259.47 133.152 1150.2 133.152C1040.93 133.152 931.667 133.152 822.4 133.152C713.133 133.152 603.867 133.152 494.6 133.152C385.333 133.152 294.814 133.152 166.8 133.152C60.1218 133.152 -51.7333 133.152 -106.367 133.152H-161V115.543Z" fill="white"/>
</svg>
