<svg width="143" height="143" viewBox="0 0 143 143" fill="none" xmlns="http://www.w3.org/2000/svg">
<path d="M71.5 0C32.0885 0 0 32.0597 0 71.5C0 110.911 32.0885 143 71.5 143C110.911 143 143 110.911 143 71.5C143 32.0597 110.911 0 71.5 0ZM7.20766 71.5C7.20766 62.1877 9.19698 53.3367 12.772 45.3506L43.4478 129.363C21.9978 118.926 7.20766 96.9286 7.20766 71.5ZM71.5 135.792C65.1861 135.792 59.1028 134.87 53.3367 133.169L72.6244 77.122L92.3734 131.266C92.5175 131.583 92.6617 131.871 92.8347 132.16C86.1748 134.495 78.996 135.792 71.5 135.792ZM80.351 41.372C84.2143 41.1702 87.7028 40.7665 87.7028 40.7665C91.1625 40.3629 90.7589 35.2599 87.2992 35.4617C87.2992 35.4617 76.8913 36.269 70.1738 36.269C63.8599 36.269 53.2502 35.4617 53.2502 35.4617C49.7905 35.2599 49.3869 40.5647 52.8466 40.7665C52.8466 40.7665 56.1333 41.1702 59.5929 41.372L69.5972 68.8187L55.5278 110.998L32.1173 41.372C35.9806 41.1702 39.4692 40.7665 39.4692 40.7665C42.9288 40.3629 42.5252 35.2599 39.0655 35.4617C39.0655 35.4617 28.6577 36.269 21.9401 36.269C20.7292 36.269 19.3165 36.2401 17.7885 36.1825C29.2919 18.7399 49.0409 7.20766 71.5 7.20766C88.2218 7.20766 103.473 13.6081 114.919 24.0736C114.631 24.0448 114.371 24.0159 114.083 24.0159C107.769 24.0159 103.3 29.5226 103.3 35.4329C103.3 40.7377 106.356 45.2065 109.614 50.5113C112.065 54.7782 114.919 60.2849 114.919 68.2421C114.919 73.7488 112.814 80.1204 110.018 89.029L103.617 110.45L80.351 41.372ZM103.819 127.057L123.453 70.2891C127.114 61.121 128.354 53.798 128.354 47.2534C128.354 44.8893 128.21 42.6982 127.922 40.6512C132.938 49.8194 135.792 60.3137 135.792 71.5C135.792 95.2276 122.934 115.928 103.819 127.057Z" fill="#016481"/>
</svg>
